<svg width="121" height="94" viewBox="0 0 121 94" fill="none" xmlns="http://www.w3.org/2000/svg">
<g filter="url(#filter0_d_480_2383)">
<rect x="70.8076" y="66.4482" width="8.95507" height="15.5867" transform="rotate(-32.9293 70.8076 66.4482)" fill="#138EFF"/>
<rect x="70.8076" y="66.4482" width="8.95507" height="15.5867" transform="rotate(-32.9293 70.8076 66.4482)" fill="url(#paint0_linear_480_2383)" fill-opacity="0.2"/>
<path d="M83.4705 69.5598L86.8811 71.0208L92.7252 71.0206L79.5719 81.2508L78.6007 78.3275L83.4705 69.5598Z" fill="#138EFF"/>
<path d="M83.4705 69.5598L86.8811 71.0208L92.7252 71.0206L79.5719 81.2508L78.6007 78.3275L83.4705 69.5598Z" fill="url(#paint1_linear_480_2383)" fill-opacity="0.2"/>
<rect width="8.95507" height="15.5867" transform="matrix(-0.839342 -0.543604 -0.543604 0.839342 49.375 66.6348)" fill="#138EFF"/>
<rect width="8.95507" height="15.5867" transform="matrix(-0.839342 -0.543604 -0.543604 0.839342 49.375 66.6348)" fill="url(#paint2_linear_480_2383)" fill-opacity="0.2"/>
<path d="M36.7111 69.7463L33.3005 71.2073L27.4565 71.2071L40.6097 81.4373L41.581 78.514L36.7111 69.7463Z" fill="#138EFF"/>
<path d="M36.7111 69.7463L33.3005 71.2073L27.4565 71.2071L40.6097 81.4373L41.581 78.514L36.7111 69.7463Z" fill="url(#paint3_linear_480_2383)" fill-opacity="0.2"/>
<rect x="95.6484" y="23.3242" width="7.4994" height="15.9721" transform="rotate(52.4475 95.6484 23.3242)" fill="#138EFF"/>
<rect x="95.6484" y="23.3242" width="7.4994" height="15.9721" transform="rotate(52.4475 95.6484 23.3242)" fill="url(#paint4_linear_480_2383)" fill-opacity="0.2"/>
<path d="M95.6491 23.3238L100.22 29.2693L106.93 26.2933L109.899 20.3555L108.712 17.9799L105.15 15.0116L102.181 14.4178L99.2123 15.6053L98.0231 18.5736L97.4294 17.9799L95.648 18.5736L95.0542 20.9488L95.6491 23.3238Z" fill="#138EFF"/>
<path d="M95.6491 23.3238L100.22 29.2693L106.93 26.2933L109.899 20.3555L108.712 17.9799L105.15 15.0116L102.181 14.4178L99.2123 15.6053L98.0231 18.5736L97.4294 17.9799L95.648 18.5736L95.0542 20.9488L95.6491 23.3238Z" fill="url(#paint5_linear_480_2383)" fill-opacity="0.2"/>
<rect width="7.4994" height="15.9721" transform="matrix(-0.609489 0.792795 0.792795 0.609489 23.4189 23.3242)" fill="#138EFF"/>
<rect width="7.4994" height="15.9721" transform="matrix(-0.609489 0.792795 0.792795 0.609489 23.4189 23.3242)" fill="url(#paint6_linear_480_2383)" fill-opacity="0.2"/>
<path d="M23.4183 23.3238L18.8475 29.2693L12.1371 26.2933L9.1682 20.3555L10.3558 17.9799L13.9173 15.0116L16.8862 14.4178L19.8551 15.6053L21.0442 18.5736L21.638 17.9799L23.4194 18.5736L24.0131 20.9488L23.4183 23.3238Z" fill="#138EFF"/>
<path d="M23.4183 23.3238L18.8475 29.2693L12.1371 26.2933L9.1682 20.3555L10.3558 17.9799L13.9173 15.0116L16.8862 14.4178L19.8551 15.6053L21.0442 18.5736L21.638 17.9799L23.4194 18.5736L24.0131 20.9488L23.4183 23.3238Z" fill="url(#paint7_linear_480_2383)" fill-opacity="0.2"/>
<circle cx="60.5793" cy="40.1477" r="32.1477" fill="#138EFF"/>
<circle cx="60.5793" cy="40.1477" r="32.1477" fill="url(#paint8_linear_480_2383)" fill-opacity="0.2"/>
<circle cx="52.2987" cy="32.8417" r="2.43543" fill="white"/>
<circle cx="66.911" cy="32.8417" r="2.43543" fill="white"/>
<path d="M54.7344 37.2256V37.2256C57.582 39.5037 61.6284 39.5037 64.4761 37.2256V37.2256" stroke="white" stroke-width="2.5"/>
</g>
<defs>
<filter id="filter0_d_480_2383" x="0.167969" y="0" width="120.731" height="93.4375" filterUnits="userSpaceOnUse" color-interpolation-filters="sRGB">
<feFlood flood-opacity="0" result="BackgroundImageFix"/>
<feColorMatrix in="SourceAlpha" type="matrix" values="0 0 0 0 0 0 0 0 0 0 0 0 0 0 0 0 0 0 127 0" result="hardAlpha"/>
<feOffset dx="1" dy="2"/>
<feGaussianBlur stdDeviation="5"/>
<feComposite in2="hardAlpha" operator="out"/>
<feColorMatrix type="matrix" values="0 0 0 0 0 0 0 0 0 0 0 0 0 0 0 0 0 0 0.25 0"/>
<feBlend mode="normal" in2="BackgroundImageFix" result="effect1_dropShadow_480_2383"/>
<feBlend mode="normal" in="SourceGraphic" in2="effect1_dropShadow_480_2383" result="shape"/>
</filter>
<linearGradient id="paint0_linear_480_2383" x1="75.2852" y1="66.4482" x2="75.2852" y2="82.035" gradientUnits="userSpaceOnUse">
<stop/>
<stop offset="1" stop-opacity="0"/>
</linearGradient>
<linearGradient id="paint1_linear_480_2383" x1="90.0847" y1="68.336" x2="78.2846" y2="79.9419" gradientUnits="userSpaceOnUse">
<stop/>
<stop offset="1" stop-opacity="0"/>
</linearGradient>
<linearGradient id="paint2_linear_480_2383" x1="4.47754" y1="0" x2="4.47754" y2="15.5867" gradientUnits="userSpaceOnUse">
<stop/>
<stop offset="1" stop-opacity="0"/>
</linearGradient>
<linearGradient id="paint3_linear_480_2383" x1="30.0969" y1="68.5225" x2="41.8971" y2="80.1284" gradientUnits="userSpaceOnUse">
<stop/>
<stop offset="1" stop-opacity="0"/>
</linearGradient>
<linearGradient id="paint4_linear_480_2383" x1="99.3981" y1="23.3242" x2="99.3981" y2="39.2963" gradientUnits="userSpaceOnUse">
<stop stop-opacity="0"/>
<stop offset="1"/>
</linearGradient>
<linearGradient id="paint5_linear_480_2383" x1="97.2589" y1="25.4178" x2="108.051" y2="17.1209" gradientUnits="userSpaceOnUse">
<stop stop-opacity="0"/>
<stop offset="1"/>
</linearGradient>
<linearGradient id="paint6_linear_480_2383" x1="3.7497" y1="0" x2="3.7497" y2="15.9721" gradientUnits="userSpaceOnUse">
<stop stop-opacity="0"/>
<stop offset="1"/>
</linearGradient>
<linearGradient id="paint7_linear_480_2383" x1="21.8085" y1="25.4178" x2="11.0162" y2="17.1209" gradientUnits="userSpaceOnUse">
<stop stop-opacity="0"/>
<stop offset="1"/>
</linearGradient>
<linearGradient id="paint8_linear_480_2383" x1="52.2988" y1="10.9225" x2="90.7786" y2="55.7344" gradientUnits="userSpaceOnUse">
<stop stop-opacity="0"/>
<stop offset="0.735" stop-opacity="0.33"/>
<stop offset="1"/>
</linearGradient>
</defs>
</svg>
