<svg width="88" height="93" viewBox="0 0 88 93" fill="none" xmlns="http://www.w3.org/2000/svg">
<g filter="url(#filter0_d_480_2417)">
<rect width="8.95507" height="15.5868" transform="matrix(-0.989724 0.142991 0.142991 0.989724 58.5537 62.874)" fill="#40DD92"/>
<rect width="8.95507" height="15.5868" transform="matrix(-0.989724 0.142991 0.142991 0.989724 58.5537 62.874)" fill="url(#paint0_linear_480_2417)" fill-opacity="0.2"/>
<path d="M51.067 73.5497L49.4603 76.8942L45.0597 80.7396L61.6957 79.7875L60.5034 76.9472L51.067 73.5497Z" fill="#40DD92"/>
<path d="M51.067 73.5497L49.4603 76.8942L45.0597 80.7396L61.6957 79.7875L60.5034 76.9472L51.067 73.5497Z" fill="url(#paint1_linear_480_2417)" fill-opacity="0.2"/>
<rect width="8.95507" height="15.5868" transform="matrix(-0.99978 0.0209553 0.0209553 0.99978 36.7656 63.2373)" fill="#40DD92"/>
<rect width="8.95507" height="15.5868" transform="matrix(-0.99978 0.0209553 0.0209553 0.99978 36.7656 63.2373)" fill="url(#paint2_linear_480_2417)" fill-opacity="0.2"/>
<path d="M28.0291 72.9187L26.0257 76.0417L21.1881 79.3204L37.8158 80.4088L36.9796 77.444L28.0291 72.9187Z" fill="#40DD92"/>
<path d="M28.0291 72.9187L26.0257 76.0417L21.1881 79.3204L37.8158 80.4088L36.9796 77.444L28.0291 72.9187Z" fill="url(#paint3_linear_480_2417)" fill-opacity="0.2"/>
<rect width="7.4994" height="15.9721" transform="matrix(0.862615 -0.505862 -0.505862 -0.862615 63.7197 66.7939)" fill="#40DD92"/>
<rect width="7.4994" height="15.9721" transform="matrix(0.862615 -0.505862 -0.505862 -0.862615 63.7197 66.7939)" fill="url(#paint4_linear_480_2417)" fill-opacity="0.2"/>
<path d="M63.7205 66.7952L70.1896 63.0015L75.2912 68.2798L75.8127 74.8979L73.8199 76.6537L69.4043 78.0672L66.4298 77.5025L64.1242 75.2868L64.1368 72.0892L63.3635 72.4165L61.9356 71.1972L62.2773 68.7729L63.7205 66.7952Z" fill="#40DD92"/>
<path d="M63.7205 66.7952L70.1896 63.0015L75.2912 68.2798L75.8127 74.8979L73.8199 76.6537L69.4043 78.0672L66.4298 77.5025L64.1242 75.2868L64.1368 72.0892L63.3635 72.4165L61.9356 71.1972L62.2773 68.7729L63.7205 66.7952Z" fill="url(#paint5_linear_480_2417)" fill-opacity="0.2"/>
<rect x="21.1494" y="66.167" width="7.4994" height="15.9721" transform="rotate(-149.916 21.1494 66.167)" fill="#40DD92"/>
<rect x="21.1494" y="66.167" width="7.4994" height="15.9721" transform="rotate(-149.916 21.1494 66.167)" fill="url(#paint6_linear_480_2417)" fill-opacity="0.2"/>
<path d="M21.1488 66.1677L14.6597 62.4085L9.58621 67.7137L9.09977 74.3346L11.1019 76.0797L15.5249 77.4698L18.4964 76.8893L20.7902 74.6615L20.7606 71.4639L21.5356 71.7871L22.9571 70.5603L22.6025 68.1379L21.1488 66.1677Z" fill="#40DD92"/>
<path d="M21.1488 66.1677L14.6597 62.4085L9.58621 67.7137L9.09977 74.3346L11.1019 76.0797L15.5249 77.4698L18.4964 76.8893L20.7902 74.6615L20.7606 71.4639L21.5356 71.7871L22.9571 70.5603L22.6025 68.1379L21.1488 66.1677Z" fill="url(#paint7_linear_480_2417)" fill-opacity="0.2"/>
<circle cx="43.8664" cy="40.1477" r="32.1477" fill="#40DD92"/>
<circle cx="43.8664" cy="40.1477" r="32.1477" fill="url(#paint8_linear_480_2417)" fill-opacity="0.2"/>
<circle cx="29.8046" cy="46.6346" r="2.43543" fill="white"/>
<circle cx="44.4179" cy="46.6346" r="2.43543" fill="white"/>
<path d="M32.2402 51.0186V51.0186C35.0879 53.2967 39.1343 53.2967 41.982 51.0186V51.0186" stroke="white" stroke-width="2.5"/>
</g>
<defs>
<filter id="filter0_d_480_2417" x="0.0996094" y="0" width="86.9141" height="92.7393" filterUnits="userSpaceOnUse" color-interpolation-filters="sRGB">
<feFlood flood-opacity="0" result="BackgroundImageFix"/>
<feColorMatrix in="SourceAlpha" type="matrix" values="0 0 0 0 0 0 0 0 0 0 0 0 0 0 0 0 0 0 127 0" result="hardAlpha"/>
<feOffset dx="1" dy="2"/>
<feGaussianBlur stdDeviation="5"/>
<feComposite in2="hardAlpha" operator="out"/>
<feColorMatrix type="matrix" values="0 0 0 0 0 0 0 0 0 0 0 0 0 0 0 0 0 0 0.25 0"/>
<feBlend mode="normal" in2="BackgroundImageFix" result="effect1_dropShadow_480_2417"/>
<feBlend mode="normal" in="SourceGraphic" in2="effect1_dropShadow_480_2417" result="shape"/>
</filter>
<linearGradient id="paint0_linear_480_2417" x1="4.47754" y1="0" x2="4.47754" y2="15.5868" gradientUnits="userSpaceOnUse">
<stop/>
<stop offset="1" stop-opacity="0"/>
</linearGradient>
<linearGradient id="paint1_linear_480_2417" x1="45.2813" y1="76.9806" x2="61.8038" y2="77.9548" gradientUnits="userSpaceOnUse">
<stop/>
<stop offset="1" stop-opacity="0"/>
</linearGradient>
<linearGradient id="paint2_linear_480_2417" x1="4.47754" y1="0" x2="4.47754" y2="15.5868" gradientUnits="userSpaceOnUse">
<stop/>
<stop offset="1" stop-opacity="0"/>
</linearGradient>
<linearGradient id="paint3_linear_480_2417" x1="21.8675" y1="75.6168" x2="38.147" y2="78.603" gradientUnits="userSpaceOnUse">
<stop/>
<stop offset="1" stop-opacity="0"/>
</linearGradient>
<linearGradient id="paint4_linear_480_2417" x1="3.7497" y1="0" x2="3.7497" y2="15.9721" gradientUnits="userSpaceOnUse">
<stop stop-opacity="0"/>
<stop offset="1"/>
</linearGradient>
<linearGradient id="paint5_linear_480_2417" x1="65.9989" y1="65.459" x2="72.8852" y2="77.2018" gradientUnits="userSpaceOnUse">
<stop stop-opacity="0"/>
<stop offset="1"/>
</linearGradient>
<linearGradient id="paint6_linear_480_2417" x1="24.8991" y1="66.167" x2="24.8991" y2="82.1391" gradientUnits="userSpaceOnUse">
<stop stop-opacity="0"/>
<stop offset="1"/>
</linearGradient>
<linearGradient id="paint7_linear_480_2417" x1="18.8633" y1="64.8437" x2="12.0395" y2="76.6229" gradientUnits="userSpaceOnUse">
<stop stop-opacity="0"/>
<stop offset="1"/>
</linearGradient>
<linearGradient id="paint8_linear_480_2417" x1="35.586" y1="10.9225" x2="74.0657" y2="55.7344" gradientUnits="userSpaceOnUse">
<stop stop-opacity="0"/>
<stop offset="0.735" stop-opacity="0.33"/>
<stop offset="1"/>
</linearGradient>
</defs>
</svg>
