<?xml version="1.0" encoding="UTF-8"?>
<svg id="Layer_1" data-name="Layer 1" xmlns="http://www.w3.org/2000/svg" xmlns:xlink="http://www.w3.org/1999/xlink" viewBox="0 0 269 201">
  <defs>
    <style>
      .cls-1 {
        fill: url(#linear-gradient);
      }

      .cls-1, .cls-2, .cls-3, .cls-4, .cls-5 {
        fill-opacity: .2;
      }

      .cls-1, .cls-2, .cls-3, .cls-4, .cls-5, .cls-6, .cls-7 {
        stroke-width: 0px;
      }

      .cls-2 {
        fill: url(#linear-gradient-3);
      }

      .cls-3 {
        fill: url(#linear-gradient-2);
      }

      .cls-4 {
        fill: url(#linear-gradient-4);
      }

      .cls-5 {
        fill: url(#linear-gradient-5);
      }

      .cls-6 {
        fill: #010101;
      }

      .cls-8 {
        fill: none;
        stroke: #010101;
        stroke-width: 4px;
      }

      .cls-7 {
        fill: #fff;
      }
    </style>
    <linearGradient id="linear-gradient" x1="-1746.41" y1="736.12" x2="-1746.41" y2="708.88" gradientTransform="translate(-602.24 -1591.26) rotate(-90)" gradientUnits="userSpaceOnUse">
      <stop offset="0" stop-color="#000"/>
      <stop offset="1" stop-color="#000" stop-opacity="0"/>
    </linearGradient>
    <linearGradient id="linear-gradient-2" x1="79.87" y1="60.19" x2="100.49" y2="39.91" gradientTransform="translate(50.33 245.7) rotate(-22.83) scale(1 -1)" gradientUnits="userSpaceOnUse">
      <stop offset="0" stop-color="#000"/>
      <stop offset="1" stop-color="#000" stop-opacity="0"/>
    </linearGradient>
    <linearGradient id="linear-gradient-3" x1="-974.74" y1="-310.69" x2="-974.74" y2="-338.6" gradientTransform="translate(-902.87 -224.16) rotate(-180)" gradientUnits="userSpaceOnUse">
      <stop offset="0" stop-color="#000" stop-opacity="0"/>
      <stop offset="1" stop-color="#000"/>
    </linearGradient>
    <linearGradient id="linear-gradient-4" x1="66.32" y1="135.51" x2="47.46" y2="150.01" gradientTransform="translate(50.33 245.7) rotate(-22.83) scale(1 -1)" gradientUnits="userSpaceOnUse">
      <stop offset="0" stop-color="#000" stop-opacity="0"/>
      <stop offset="1" stop-color="#000"/>
    </linearGradient>
    <linearGradient id="linear-gradient-5" x1="96.32" y1="128.42" x2="162.49" y2="51.36" gradientUnits="userSpaceOnUse">
      <stop offset="0" stop-color="#000" stop-opacity="0"/>
      <stop offset=".73" stop-color="#000" stop-opacity=".33"/>
      <stop offset="1" stop-color="#000"/>
    </linearGradient>
  </defs>
  <rect class="cls-7" x="106.64" y="147.33" width="27.23" height="15.65" transform="translate(-53.58 246.35) rotate(-79.9)"/>
  <rect class="cls-1" x="106.64" y="147.33" width="27.23" height="15.65" transform="translate(-53.58 246.35) rotate(-79.9)"/>
  <path class="cls-7" d="M112.06,156.72l-4.5,4.67-9.41,3.96,28.12,7.56-.42-5.37-13.79-10.82Z"/>
  <path class="cls-3" d="M112.06,156.72l-4.5,4.67-9.41,3.96,28.12,7.56-.42-5.37-13.79-10.82Z"/>
  <rect class="cls-7" x="65.32" y="86.54" width="13.1" height="27.91" transform="translate(-43.59 144.47) rotate(-75.28)"/>
  <rect class="cls-2" x="65.32" y="86.54" width="13.1" height="27.91" transform="translate(-43.59 144.47) rotate(-75.28)"/>
  <path class="cls-7" d="M60.04,90.61l-3.33,12.67-12.82-.24-8.81-7.55.3-4.63,3.72-7.19,4.38-2.97,5.59-.1,3.93,3.97.55-1.36,3.27-.25,2.57,3.42.65,4.23Z"/>
  <path class="cls-4" d="M60.04,90.61l-3.33,12.67-12.82-.24-8.81-7.55.3-4.63,3.72-7.19,4.38-2.97,5.59-.1,3.93,3.97.55-1.36,3.27-.25,2.57,3.42.65,4.23Z"/>
  <path class="cls-7" d="M154.3,42.85v100.8c-.98.49-1.97.94-2.99,1.37-7.22,3.04-14.72,4.46-22.09,4.41-5.28-.02-10.49-.8-15.49-2.27-15.65-4.59-29.17-15.92-35.99-32.11-.95-2.27-1.75-4.56-2.38-6.87-1.29-4.67-1.95-9.39-2.02-14.08-.33-22.22,12.63-43.46,34.38-52.62,15.6-6.57,32.49-5.56,46.58,1.37Z"/>
  <path class="cls-5" d="M154.3,42.85v100.8c-.98.49-1.97.94-2.99,1.37-7.22,3.04-14.72,4.46-22.09,4.41-5.28-.02-10.49-.8-15.49-2.27-15.65-4.59-29.17-15.92-35.99-32.11-.95-2.27-1.75-4.56-2.38-6.87-1.29-4.67-1.95-9.39-2.02-14.08-.33-22.22,12.63-43.46,34.38-52.62,15.6-6.57,32.49-5.56,46.58,1.37Z"/>
  <circle class="cls-6" cx="111.23" cy="87.1" r="4.26"/>
  <circle class="cls-6" cx="134.76" cy="77.19" r="4.26"/>
  <path class="cls-8" d="M118.12,92.51l3.92,1.11c3.84,1.09,7.91-.63,9.82-4.13l1.95-3.58"/>
</svg>