<svg width="269" height="201" viewBox="0 0 269 201" fill="none" xmlns="http://www.w3.org/2000/svg">
<g filter="url(#filter0_d_480_2725)">
<rect x="160.931" y="151.749" width="22.0246" height="38.3349" transform="rotate(-32.9293 160.931 151.749)" fill="#313131"/>
<rect x="160.931" y="151.749" width="22.0246" height="38.3349" transform="rotate(-32.9293 160.931 151.749)" fill="url(#paint0_linear_480_2725)" fill-opacity="0.2"/>
<path d="M192.073 159.403L200.462 162.996L214.835 162.995L182.485 188.156L180.096 180.966L192.073 159.403Z" fill="#313131"/>
<path d="M192.073 159.403L200.462 162.996L214.835 162.995L182.485 188.156L180.096 180.966L192.073 159.403Z" fill="url(#paint1_linear_480_2725)" fill-opacity="0.2"/>
<rect width="22.0246" height="38.3349" transform="matrix(-0.839342 -0.543604 -0.543604 0.839342 108.22 152.209)" fill="#313131"/>
<rect width="22.0246" height="38.3349" transform="matrix(-0.839342 -0.543604 -0.543604 0.839342 108.22 152.209)" fill="url(#paint2_linear_480_2725)" fill-opacity="0.2"/>
<path d="M77.0741 159.863L68.6859 163.457L54.3128 163.456L86.6626 188.617L89.0513 181.427L77.0741 159.863Z" fill="#313131"/>
<path d="M77.0741 159.863L68.6859 163.457L54.3128 163.456L86.6626 188.617L89.0513 181.427L77.0741 159.863Z" fill="url(#paint3_linear_480_2725)" fill-opacity="0.2"/>
<rect x="222.024" y="45.6885" width="18.4444" height="39.2827" transform="rotate(52.4475 222.024 45.6885)" fill="#313131"/>
<rect x="222.024" y="45.6885" width="18.4444" height="39.2827" transform="rotate(52.4475 222.024 45.6885)" fill="url(#paint4_linear_480_2725)" fill-opacity="0.2"/>
<path d="M222.027 45.688L233.268 60.3106L249.772 52.9914L257.074 38.3877L254.153 32.5448L245.394 25.2444L238.092 23.784L230.79 26.7048L227.866 34.0052L226.405 32.5448L222.024 34.0052L220.564 39.8467L222.027 45.688Z" fill="#313131"/>
<path d="M222.027 45.688L233.268 60.3106L249.772 52.9914L257.074 38.3877L254.153 32.5448L245.394 25.2444L238.092 23.784L230.79 26.7048L227.866 34.0052L226.405 32.5448L222.024 34.0052L220.564 39.8467L222.027 45.688Z" fill="url(#paint5_linear_480_2725)" fill-opacity="0.2"/>
<rect width="18.4444" height="39.2827" transform="matrix(-0.609489 0.792795 0.792795 0.609489 44.3818 45.6885)" fill="#313131"/>
<rect width="18.4444" height="39.2827" transform="matrix(-0.609489 0.792795 0.792795 0.609489 44.3818 45.6885)" fill="url(#paint6_linear_480_2725)" fill-opacity="0.2"/>
<path d="M44.3797 45.688L33.138 60.3106L16.634 52.9914L9.33216 38.3877L12.2529 32.5448L21.0122 25.2444L28.3141 23.784L35.616 26.7048L38.5407 34.0052L40.0011 32.5448L44.3822 34.0052L45.8426 39.8467L44.3797 45.688Z" fill="#313131"/>
<path d="M44.3797 45.688L33.138 60.3106L16.634 52.9914L9.33216 38.3877L12.2529 32.5448L21.0122 25.2444L28.3141 23.784L35.616 26.7048L38.5407 34.0052L40.0011 32.5448L44.3822 34.0052L45.8426 39.8467L44.3797 45.688Z" fill="url(#paint7_linear_480_2725)" fill-opacity="0.2"/>
<circle cx="135.775" cy="87.0657" r="79.0657" fill="#313131"/>
<circle cx="135.775" cy="87.0657" r="79.0657" fill="url(#paint8_linear_480_2725)" fill-opacity="0.2"/>
<circle cx="115.41" cy="69.0963" r="5.98983" fill="white"/>
<circle cx="151.349" cy="69.0963" r="5.98983" fill="white"/>
<path d="M121.399 79.8789L125.883 83.4656C130.265 86.9717 136.493 86.9717 140.875 83.4656L145.359 79.8789" stroke="white" stroke-width="4"/>
</g>
<defs>
<filter id="filter0_d_480_2725" x="0.332031" y="0" width="267.742" height="200.617" filterUnits="userSpaceOnUse" color-interpolation-filters="sRGB">
<feFlood flood-opacity="0" result="BackgroundImageFix"/>
<feColorMatrix in="SourceAlpha" type="matrix" values="0 0 0 0 0 0 0 0 0 0 0 0 0 0 0 0 0 0 127 0" result="hardAlpha"/>
<feOffset dx="1" dy="2"/>
<feGaussianBlur stdDeviation="5"/>
<feComposite in2="hardAlpha" operator="out"/>
<feColorMatrix type="matrix" values="0 0 0 0 0 0 0 0 0 0 0 0 0 0 0 0 0 0 0.25 0"/>
<feBlend mode="normal" in2="BackgroundImageFix" result="effect1_dropShadow_480_2725"/>
<feBlend mode="normal" in="SourceGraphic" in2="effect1_dropShadow_480_2725" result="shape"/>
</filter>
<linearGradient id="paint0_linear_480_2725" x1="171.943" y1="151.749" x2="171.943" y2="190.084" gradientUnits="userSpaceOnUse">
<stop/>
<stop offset="1" stop-opacity="0"/>
</linearGradient>
<linearGradient id="paint1_linear_480_2725" x1="208.341" y1="156.393" x2="179.319" y2="184.937" gradientUnits="userSpaceOnUse">
<stop/>
<stop offset="1" stop-opacity="0"/>
</linearGradient>
<linearGradient id="paint2_linear_480_2725" x1="11.0123" y1="0" x2="11.0123" y2="38.3349" gradientUnits="userSpaceOnUse">
<stop/>
<stop offset="1" stop-opacity="0"/>
</linearGradient>
<linearGradient id="paint3_linear_480_2725" x1="60.8068" y1="156.854" x2="89.8288" y2="185.398" gradientUnits="userSpaceOnUse">
<stop/>
<stop offset="1" stop-opacity="0"/>
</linearGradient>
<linearGradient id="paint4_linear_480_2725" x1="231.247" y1="45.6885" x2="231.247" y2="84.9712" gradientUnits="userSpaceOnUse">
<stop stop-opacity="0"/>
<stop offset="1"/>
</linearGradient>
<linearGradient id="paint5_linear_480_2725" x1="225.986" y1="50.8381" x2="252.529" y2="30.4321" gradientUnits="userSpaceOnUse">
<stop stop-opacity="0"/>
<stop offset="1"/>
</linearGradient>
<linearGradient id="paint6_linear_480_2725" x1="9.22221" y1="0" x2="9.22221" y2="39.2827" gradientUnits="userSpaceOnUse">
<stop stop-opacity="0"/>
<stop offset="1"/>
</linearGradient>
<linearGradient id="paint7_linear_480_2725" x1="40.4203" y1="50.8381" x2="13.8771" y2="30.4321" gradientUnits="userSpaceOnUse">
<stop stop-opacity="0"/>
<stop offset="1"/>
</linearGradient>
<linearGradient id="paint8_linear_480_2725" x1="115.409" y1="15.1878" x2="210.049" y2="125.401" gradientUnits="userSpaceOnUse">
<stop stop-opacity="0"/>
<stop offset="0.735" stop-color="white" stop-opacity="0.33"/>
<stop offset="1" stop-color="white"/>
</linearGradient>
</defs>
</svg>
