<svg width="116" height="95" viewBox="0 0 116 95" fill="none" xmlns="http://www.w3.org/2000/svg">
<g filter="url(#filter0_d_480_2400)">
<rect width="8.95507" height="15.5867" transform="matrix(-0.425905 0.904768 0.904768 0.425905 75.1592 61.3818)" fill="#FF5942"/>
<rect width="8.95507" height="15.5867" transform="matrix(-0.425905 0.904768 0.904768 0.425905 75.1592 61.3818)" fill="url(#paint0_linear_480_2400)" fill-opacity="0.2"/>
<path d="M79.9435 73.5117L81.8495 76.6951L82.6345 82.4862L91.0048 68.0777L87.9775 67.508L79.9435 73.5117Z" fill="#FF5942"/>
<path d="M79.9435 73.5117L81.8495 76.6951L82.6345 82.4862L91.0048 68.0777L87.9775 67.508L79.9435 73.5117Z" fill="url(#paint1_linear_480_2400)" fill-opacity="0.2"/>
<rect width="8.95507" height="15.5867" transform="matrix(-0.839342 -0.543604 -0.543604 0.839342 41.9277 67.6074)" fill="#FF5942"/>
<rect width="8.95507" height="15.5867" transform="matrix(-0.839342 -0.543604 -0.543604 0.839342 41.9277 67.6074)" fill="url(#paint2_linear_480_2400)" fill-opacity="0.2"/>
<path d="M29.2648 70.7199L25.8542 72.1809L20.0102 72.1807L33.1634 82.4109L34.1347 79.4876L29.2648 70.7199Z" fill="#FF5942"/>
<path d="M29.2648 70.7199L25.8542 72.1809L20.0102 72.1807L33.1634 82.4109L34.1347 79.4876L29.2648 70.7199Z" fill="url(#paint3_linear_480_2400)" fill-opacity="0.2"/>
<rect width="7.4994" height="15.9721" transform="matrix(0.609489 -0.792795 -0.792795 -0.609489 90.0596 54.582)" fill="#FF5942"/>
<rect width="7.4994" height="15.9721" transform="matrix(0.609489 -0.792795 -0.792795 -0.609489 90.0596 54.582)" fill="url(#paint4_linear_480_2400)" fill-opacity="0.2"/>
<path d="M90.0612 54.5824L94.632 48.637L101.342 51.6129L104.311 57.5507L103.124 59.9264L99.5622 62.8947L96.5933 63.4885L93.6244 62.3009L92.4353 59.3326L91.8415 59.9264L90.0601 59.3326L89.4663 56.9575L90.0612 54.5824Z" fill="#FF5942"/>
<path d="M90.0612 54.5824L94.632 48.637L101.342 51.6129L104.311 57.5507L103.124 59.9264L99.5622 62.8947L96.5933 63.4885L93.6244 62.3009L92.4353 59.3326L91.8415 59.9264L90.0601 59.3326L89.4663 56.9575L90.0612 54.5824Z" fill="url(#paint5_linear_480_2400)" fill-opacity="0.2"/>
<rect width="7.4994" height="15.9721" transform="matrix(-0.696209 0.717839 0.717839 0.696209 23.1064 21.2305)" fill="#FF5942"/>
<rect width="7.4994" height="15.9721" transform="matrix(-0.696209 0.717839 0.717839 0.696209 23.1064 21.2305)" fill="url(#paint6_linear_480_2400)" fill-opacity="0.2"/>
<path d="M23.1053 21.2301L17.8842 26.6134L11.5584 22.8891L9.28847 16.6506L10.7401 14.4264L14.6179 11.8852L17.6352 11.635L20.4487 13.1545L21.2904 16.2394L21.9482 15.7175L23.6499 16.5112L23.968 18.9387L23.1053 21.2301Z" fill="#FF5942"/>
<path d="M23.1053 21.2301L17.8842 26.6134L11.5584 22.8891L9.28847 16.6506L10.7401 14.4264L14.6179 11.8852L17.6352 11.635L20.4487 13.1545L21.2904 16.2394L21.9482 15.7175L23.6499 16.5112L23.968 18.9387L23.1053 21.2301Z" fill="url(#paint7_linear_480_2400)" fill-opacity="0.2"/>
<circle cx="56.8137" cy="41.0305" r="32.1477" fill="#FF5942"/>
<circle cx="56.8137" cy="41.0305" r="32.1477" fill="url(#paint8_linear_480_2400)" fill-opacity="0.2"/>
<circle cx="38.3368" cy="32.5077" r="2.43543" fill="white"/>
<circle cx="52.9491" cy="32.5077" r="2.43543" fill="white"/>
<path d="M40.7725 36.8916V36.8916C43.6201 39.1697 47.6665 39.1697 50.5142 36.8916V36.8916" stroke="white" stroke-width="2.5"/>
</g>
<defs>
<filter id="filter0_d_480_2400" x="0.288086" y="0.882812" width="115.023" height="93.6035" filterUnits="userSpaceOnUse" color-interpolation-filters="sRGB">
<feFlood flood-opacity="0" result="BackgroundImageFix"/>
<feColorMatrix in="SourceAlpha" type="matrix" values="0 0 0 0 0 0 0 0 0 0 0 0 0 0 0 0 0 0 127 0" result="hardAlpha"/>
<feOffset dx="1" dy="2"/>
<feGaussianBlur stdDeviation="5"/>
<feComposite in2="hardAlpha" operator="out"/>
<feColorMatrix type="matrix" values="0 0 0 0 0 0 0 0 0 0 0 0 0 0 0 0 0 0 0.25 0"/>
<feBlend mode="normal" in2="BackgroundImageFix" result="effect1_dropShadow_480_2400"/>
<feBlend mode="normal" in="SourceGraphic" in2="effect1_dropShadow_480_2400" result="shape"/>
</filter>
<linearGradient id="paint0_linear_480_2400" x1="4.47754" y1="0" x2="4.47754" y2="15.5867" gradientUnits="userSpaceOnUse">
<stop/>
<stop offset="1" stop-opacity="0"/>
</linearGradient>
<linearGradient id="paint1_linear_480_2400" x1="79.6195" y1="80.2304" x2="89.5348" y2="66.9779" gradientUnits="userSpaceOnUse">
<stop/>
<stop offset="1" stop-opacity="0"/>
</linearGradient>
<linearGradient id="paint2_linear_480_2400" x1="4.47754" y1="0" x2="4.47754" y2="15.5867" gradientUnits="userSpaceOnUse">
<stop/>
<stop offset="1" stop-opacity="0"/>
</linearGradient>
<linearGradient id="paint3_linear_480_2400" x1="22.6506" y1="69.4961" x2="34.4508" y2="81.1021" gradientUnits="userSpaceOnUse">
<stop/>
<stop offset="1" stop-opacity="0"/>
</linearGradient>
<linearGradient id="paint4_linear_480_2400" x1="3.7497" y1="0" x2="3.7497" y2="15.9721" gradientUnits="userSpaceOnUse">
<stop stop-opacity="0"/>
<stop offset="1"/>
</linearGradient>
<linearGradient id="paint5_linear_480_2400" x1="91.671" y1="52.4884" x2="102.463" y2="60.7854" gradientUnits="userSpaceOnUse">
<stop stop-opacity="0"/>
<stop offset="1"/>
</linearGradient>
<linearGradient id="paint6_linear_480_2400" x1="3.7497" y1="0" x2="3.7497" y2="15.9721" gradientUnits="userSpaceOnUse">
<stop stop-opacity="0"/>
<stop offset="1"/>
</linearGradient>
<linearGradient id="paint7_linear_480_2400" x1="21.2664" y1="23.1261" x2="11.4945" y2="13.6486" gradientUnits="userSpaceOnUse">
<stop stop-opacity="0"/>
<stop offset="1"/>
</linearGradient>
<linearGradient id="paint8_linear_480_2400" x1="48.5332" y1="11.8053" x2="87.013" y2="56.6172" gradientUnits="userSpaceOnUse">
<stop stop-opacity="0"/>
<stop offset="0.735" stop-opacity="0.33"/>
<stop offset="1"/>
</linearGradient>
</defs>
</svg>
