<?xml version="1.0" encoding="UTF-8"?>
<svg id="Layer_1" data-name="Layer 1" xmlns="http://www.w3.org/2000/svg" xmlns:xlink="http://www.w3.org/1999/xlink" viewBox="0 0 162.95 153.31">
  <defs>
    <style>
      .cls-1 {
        fill: url(#linear-gradient);
      }

      .cls-1, .cls-2, .cls-3, .cls-4, .cls-5, .cls-6, .cls-7, .cls-8, .cls-9 {
        fill-opacity: .2;
      }

      .cls-1, .cls-2, .cls-3, .cls-4, .cls-5, .cls-6, .cls-7, .cls-8, .cls-9, .cls-10, .cls-11, .cls-12 {
        stroke-width: 0px;
      }

      .cls-2 {
        fill: url(#linear-gradient-8);
      }

      .cls-3 {
        fill: url(#linear-gradient-9);
      }

      .cls-4 {
        fill: url(#linear-gradient-6);
      }

      .cls-5 {
        fill: url(#linear-gradient-3);
      }

      .cls-6 {
        fill: url(#linear-gradient-2);
      }

      .cls-7 {
        fill: url(#linear-gradient-4);
      }

      .cls-8 {
        fill: url(#linear-gradient-7);
      }

      .cls-9 {
        fill: url(#linear-gradient-5);
      }

      .cls-10 {
        fill: #cecece;
        opacity: .17;
      }

      .cls-11 {
        fill: #010101;
      }

      .cls-13 {
        fill: none;
        stroke: #010101;
        stroke-width: 4px;
      }

      .cls-12 {
        fill: #fff;
      }
    </style>
    <linearGradient id="linear-gradient" x1="-255.35" y1="-332.69" x2="-255.35" y2="-357.9" gradientTransform="translate(367.14 -224.84) scale(1 -1)" gradientUnits="userSpaceOnUse">
      <stop offset="0" stop-color="#000"/>
      <stop offset="1" stop-color="#000" stop-opacity="0"/>
    </linearGradient>
    <linearGradient id="linear-gradient-2" x1="130.03" y1="41.45" x2="110.94" y2="22.68" gradientTransform="translate(0 158.31) scale(1 -1)" gradientUnits="userSpaceOnUse">
      <stop offset="0" stop-color="#000"/>
      <stop offset="1" stop-color="#000" stop-opacity="0"/>
    </linearGradient>
    <linearGradient id="linear-gradient-3" x1="-1804.63" y1="719.27" x2="-1804.63" y2="694.05" gradientTransform="translate(-655.42 -1683.87) rotate(-90)" gradientUnits="userSpaceOnUse">
      <stop offset="0" stop-color="#000"/>
      <stop offset="1" stop-color="#000" stop-opacity="0"/>
    </linearGradient>
    <linearGradient id="linear-gradient-4" x1="32.99" y1="41.15" x2="52.08" y2="22.37" gradientTransform="translate(0 158.31) scale(1 -1)" gradientUnits="userSpaceOnUse">
      <stop offset="0" stop-color="#000"/>
      <stop offset="1" stop-color="#000" stop-opacity="0"/>
    </linearGradient>
    <linearGradient id="linear-gradient-5" x1="198.58" y1="925.84" x2="198.58" y2="900" gradientTransform="translate(-779.57 -141.86) rotate(90) scale(1 -1)" gradientUnits="userSpaceOnUse">
      <stop offset="0" stop-color="#000" stop-opacity="0"/>
      <stop offset="1" stop-color="#000"/>
    </linearGradient>
    <linearGradient id="linear-gradient-6" x1="142.5" y1="110.88" x2="159.96" y2="124.3" gradientTransform="translate(0 158.31) scale(1 -1)" gradientUnits="userSpaceOnUse">
      <stop offset="0" stop-color="#000" stop-opacity="0"/>
      <stop offset="1" stop-color="#000"/>
    </linearGradient>
    <linearGradient id="linear-gradient-7" x1="-1032.63" y1="-341.17" x2="-1032.63" y2="-367.01" gradientTransform="translate(-1003.03 -297.36) rotate(-180)" gradientUnits="userSpaceOnUse">
      <stop offset="0" stop-color="#000" stop-opacity="0"/>
      <stop offset="1" stop-color="#000"/>
    </linearGradient>
    <linearGradient id="linear-gradient-8" x1="20.45" y1="110.88" x2="2.99" y2="124.3" gradientTransform="translate(0 158.31) scale(1 -1)" gradientUnits="userSpaceOnUse">
      <stop offset="0" stop-color="#000" stop-opacity="0"/>
      <stop offset="1" stop-color="#000"/>
    </linearGradient>
    <linearGradient id="linear-gradient-9" x1="52.33" y1="120.88" x2="114.58" y2="48.39" gradientTransform="translate(0 158.31) scale(1 -1)" gradientUnits="userSpaceOnUse">
      <stop offset="0" stop-color="#000" stop-opacity="0"/>
      <stop offset=".73" stop-color="#000" stop-opacity=".33"/>
      <stop offset="1" stop-color="#000"/>
    </linearGradient>
  </defs>
  <circle class="cls-10" cx="81.48" cy="76.66" r="76.66"/>
  <g>
    <rect class="cls-12" x="104.54" y="107.84" width="14.49" height="25.21" transform="translate(-47.52 80.12) rotate(-32.93)"/>
    <rect class="cls-1" x="104.54" y="107.84" width="14.49" height="25.21" transform="translate(-47.52 80.12) rotate(-32.93)"/>
    <path class="cls-12" d="M119.33,118.84l5.52,2.36h9.45s-21.28,16.55-21.28,16.55l-1.57-4.73,7.88-14.18Z"/>
    <path class="cls-6" d="M119.33,118.84l5.52,2.36h9.45s-21.28,16.55-21.28,16.55l-1.57-4.73,7.88-14.18Z"/>
    <rect class="cls-12" x="38.64" y="113.51" width="25.21" height="14.49" transform="translate(-77.96 98.12) rotate(-57.07)"/>
    <rect class="cls-5" x="38.64" y="113.51" width="25.21" height="14.49" transform="translate(-77.96 98.12) rotate(-57.07)"/>
    <path class="cls-12" d="M43.69,119.14l-5.52,2.36h-9.45s21.28,16.55,21.28,16.55l1.57-4.73-7.88-14.18Z"/>
    <path class="cls-7" d="M43.69,119.14l-5.52,2.36h-9.45s21.28,16.55,21.28,16.55l1.57-4.73-7.88-14.18Z"/>
    <rect class="cls-12" x="120.43" y="50.66" width="25.84" height="12.13" transform="translate(-6.94 93.03) rotate(-37.55)"/>
    <rect class="cls-9" x="120.43" y="50.66" width="25.84" height="12.13" transform="translate(-6.94 93.03) rotate(-37.55)"/>
    <path class="cls-12" d="M139.9,44.05l7.39,9.62,10.86-4.81,4.8-9.61-1.92-3.84-5.76-4.8-4.8-.96-4.8,1.92-1.92,4.8-.96-.96-2.88.96-.96,3.84.96,3.84Z"/>
    <path class="cls-4" d="M139.9,44.05l7.39,9.62,10.86-4.81,4.8-9.61-1.92-3.84-5.76-4.8-4.8-.96-4.8,1.92-1.92,4.8-.96-.96-2.88.96-.96,3.84.96,3.84Z"/>
    <rect class="cls-12" x="23.53" y="43.81" width="12.13" height="25.84" transform="translate(-33.42 45.62) rotate(-52.45)"/>
    <rect class="cls-8" x="23.53" y="43.81" width="12.13" height="25.84" transform="translate(-33.42 45.62) rotate(-52.45)"/>
    <path class="cls-12" d="M23.05,44.05l-7.39,9.62-10.86-4.81L0,39.24l1.92-3.84,5.76-4.8,4.8-.96,4.8,1.92,1.92,4.8.96-.96,2.88.96.96,3.84-.96,3.84Z"/>
    <path class="cls-2" d="M23.05,44.05l-7.39,9.62-10.86-4.81L0,39.24l1.92-3.84,5.76-4.8,4.8-.96,4.8,1.92,1.92,4.8.96-.96,2.88.96.96,3.84-.96,3.84Z"/>
    <circle class="cls-12" cx="81.39" cy="71.26" r="52.01"/>
    <circle class="cls-3" cx="81.39" cy="71.26" r="52.01"/>
    <circle class="cls-11" cx="67.99" cy="59.44" r="3.94"/>
    <circle class="cls-11" cx="91.63" cy="59.44" r="3.94"/>
    <path class="cls-13" d="M71.93,66.53l2.95,2.36c2.88,2.31,6.98,2.31,9.86,0l2.95-2.36"/>
  </g>
</svg>