<svg xmlns="http://www.w3.org/2000/svg" xmlns:xlink="http://www.w3.org/1999/xlink" viewBox="0 0 624 624" width="624" height="624" preserveAspectRatio="xMidYMid meet" style="width: 100%; height: 100%; transform: translate3d(0px, 0px, 0px); content-visibility: visible;"><defs><clipPath id="__lottie_element_50"><rect width="624" height="624" x="0" y="0"></rect></clipPath><clipPath id="__lottie_element_52"><path d="M0,0 L624,0 L624,624 L0,624z"></path></clipPath></defs><g clip-path="url(#__lottie_element_50)"><g style="display: none;"><g><path stroke-linecap="round" stroke-linejoin="miter" fill-opacity="0" stroke-miterlimit="4"></path></g></g><g style="display: none;"><g><path stroke-linecap="round" stroke-linejoin="miter" fill-opacity="0" stroke-miterlimit="4"></path></g></g><g transform="matrix(1,0,0,1,300.2969970703125,308.2969970703125)" opacity="1" style="display: none;"><g opacity="1" transform="matrix(1,0,0,1,11.70300006866455,3.703000068664551)"><path stroke-linecap="round" stroke-linejoin="miter" fill-opacity="0" stroke-miterlimit="4" stroke="rgb(126,211,33)" stroke-opacity="1" stroke-width="20" d="M0 0"></path></g></g><g transform="matrix(1,0,0,1,312,312)" opacity="0.0005146921371017754" style="display: none;"><g opacity="1" transform="matrix(0.8660253882408142,-0.5,0.5,0.8660253882408142,0,0)"><g opacity="1" transform="matrix(1,0,0,1,0,0)"><path stroke-linecap="round" stroke-linejoin="miter" fill-opacity="0" stroke-miterlimit="4" stroke="rgb(126,211,33)" stroke-opacity="1" stroke-width="24" d="M0 0"></path></g></g><g opacity="1" transform="matrix(0.5,-0.8660253882408142,0.8660253882408142,0.5,0,0)"><g opacity="1" transform="matrix(1,0,0,1,0,0)"><path stroke-linecap="round" stroke-linejoin="miter" fill-opacity="0" stroke-miterlimit="4" stroke="rgb(126,211,33)" stroke-opacity="1" stroke-width="24" d="M0 0"></path></g></g><g opacity="1" transform="matrix(0,-1,1,0,0,0)"><g opacity="1" transform="matrix(1,0,0,1,0,0)"><path stroke-linecap="round" stroke-linejoin="miter" fill-opacity="0" stroke-miterlimit="4" stroke="rgb(126,211,33)" stroke-opacity="1" stroke-width="24" d="M0 0"></path></g></g><g opacity="1" transform="matrix(-0.5,-0.8660253882408142,0.8660253882408142,-0.5,0,0)"><g opacity="1" transform="matrix(1,0,0,1,0,0)"><path stroke-linecap="round" stroke-linejoin="miter" fill-opacity="0" stroke-miterlimit="4" stroke="rgb(126,211,33)" stroke-opacity="1" stroke-width="24" d="M0 0"></path></g></g><g opacity="1" transform="matrix(-0.8660253882408142,-0.5,0.5,-0.8660253882408142,0,0)"><g opacity="1" transform="matrix(1,0,0,1,0,0)"><path stroke-linecap="round" stroke-linejoin="miter" fill-opacity="0" stroke-miterlimit="4" stroke="rgb(126,211,33)" stroke-opacity="1" stroke-width="24" d="M0 0"></path></g></g><g opacity="1" transform="matrix(-1,0,0,-1,0,0)"><g opacity="1" transform="matrix(1,0,0,1,0,0)"><path stroke-linecap="round" stroke-linejoin="miter" fill-opacity="0" stroke-miterlimit="4" stroke="rgb(126,211,33)" stroke-opacity="1" stroke-width="24" d="M0 0"></path></g></g><g opacity="1" transform="matrix(-0.8660253882408142,0.5,-0.5,-0.8660253882408142,0,0)"><g opacity="1" transform="matrix(1,0,0,1,0,0)"><path stroke-linecap="round" stroke-linejoin="miter" fill-opacity="0" stroke-miterlimit="4" stroke="rgb(126,211,33)" stroke-opacity="1" stroke-width="24" d="M0 0"></path></g></g><g opacity="1" transform="matrix(-0.5,0.8660253882408142,-0.8660253882408142,-0.5,0,0)"><g opacity="1" transform="matrix(1,0,0,1,0,0)"><path stroke-linecap="round" stroke-linejoin="miter" fill-opacity="0" stroke-miterlimit="4" stroke="rgb(126,211,33)" stroke-opacity="1" stroke-width="24" d="M0 0"></path></g></g><g opacity="1" transform="matrix(0,1,-1,0,0,0)"><g opacity="1" transform="matrix(1,0,0,1,0,0)"><path stroke-linecap="round" stroke-linejoin="miter" fill-opacity="0" stroke-miterlimit="4" stroke="rgb(126,211,33)" stroke-opacity="1" stroke-width="24" d="M0 0"></path></g></g><g opacity="1" transform="matrix(0.5,0.8660253882408142,-0.8660253882408142,0.5,0,0)"><g opacity="1" transform="matrix(1,0,0,1,0,0)"><path stroke-linecap="round" stroke-linejoin="miter" fill-opacity="0" stroke-miterlimit="4" stroke="rgb(126,211,33)" stroke-opacity="1" stroke-width="24" d="M0 0"></path></g></g><g opacity="1" transform="matrix(0.8660253882408142,0.5,-0.5,0.8660253882408142,0,0)"><g opacity="1" transform="matrix(1,0,0,1,0,0)"><path stroke-linecap="round" stroke-linejoin="miter" fill-opacity="0" stroke-miterlimit="4" stroke="rgb(126,211,33)" stroke-opacity="1" stroke-width="24" d="M0 0"></path></g></g><g opacity="1" transform="matrix(1,0,0,1,0,0)"><g opacity="1" transform="matrix(1,0,0,1,0,0)"><path stroke-linecap="round" stroke-linejoin="miter" fill-opacity="0" stroke-miterlimit="4" stroke="rgb(126,211,33)" stroke-opacity="1" stroke-width="24" d="M0 0"></path></g></g></g><g clip-path="url(#__lottie_element_52)" transform="matrix(1,0,0,1,0,0)" opacity="1" style="display: block;"><g transform="matrix(1,0,0,1,300.2969970703125,308.2969970703125)" opacity="1" style="display: block;"><g opacity="1" transform="matrix(1,0,0,1,11.70300006866455,3.703000068664551)"><path fill="rgb(126,211,33)" fill-opacity="1" d=" M0,-178 C98.23819732666016,-178 178,-98.23819732666016 178,0 C178,98.23819732666016 98.23819732666016,178 0,178 C-98.23819732666016,178 -178,98.23819732666016 -178,0 C-178,-98.23819732666016 -98.23819732666016,-178 0,-178z"></path></g></g><g transform="matrix(1,0,0,1,232.6090087890625,251.30401611328125)" opacity="1" style="display: block;"><g opacity="1" transform="matrix(1,0,0,1,85.09100341796875,60.65399932861328)"><path stroke-linecap="round" stroke-linejoin="round" fill-opacity="0" stroke="rgb(255,254,255)" stroke-opacity="1" stroke-width="24" d=" M-61.090999603271484,-2.5959999561309814 C-61.090999603271484,-2.5959999561309814 -16.822999954223633,36.65399932861328 -16.822999954223633,36.65399932861328 C-16.822999954223633,36.65399932861328 61.090999603271484,-36.65399932861328 61.090999603271484,-36.65399932861328"></path></g></g></g></g></svg>